<svg fill="none" height="20" viewBox="0 0 20 20" width="20" xmlns="http://www.w3.org/2000/svg"><g clip-rule="evenodd" fill="#475569" fill-rule="evenodd"><path d="m5.8756 2.54187c1.09396-1.09396 2.57769-1.708542 4.1248-1.708542 1.5471 0 3.0308.614582 4.1248 1.708542 1.0939 1.09396 1.7085 2.5777 1.7085 4.12479 0 2.79388.5976 4.52884 1.1483 5.53844.2765.5069.5457.8395.7327 1.0369.0938.0989.1674.1645.2118.2015.0221.0185.037.0298.0434.0346.001.0007.0018.0013.0024.0017.2988.2052.431.5806.3257.9283-.1064.3515-.4304.5919-.7976.5919h-15.00001c-.36722 0-.69116-.2404-.79758-.5919-.10528-.3477.02692-.7231.32566-.9283.00058-.0004.00138-.001.00238-.0017.00641-.0048.02129-.0161.04348-.0346.04434-.037.118-.1026.21172-.2015.18703-.1974.45627-.53.73276-1.0369.55069-1.0096 1.14825-2.74456 1.14825-5.53844 0-1.54709.61458-3.03083 1.70854-4.12479zm-3.83871 10.93223c.00006 0 .00013-.0001.0002-.0001-.00001 0-.00001 0-.00002 0zm2.2546-.1408h11.41781c-.0634-.1039-.1271-.2138-.1905-.3301-.6993-1.2821-1.3517-3.29709-1.3517-6.33654 0-1.10507-.439-2.16488-1.2204-2.94628s-1.8412-1.22039-2.9463-1.22039c-1.10508 0-2.16489.43899-2.94629 1.22039-.7814.78141-1.22039 1.84121-1.22039 2.94628 0 3.03945-.65244 5.05444-1.35175 6.33654-.06341.1163-.12707.2262-.19048.3301z"/><path d="m8.13994 16.7792c.3981-.231.90804-.0954 1.13897.3027.07326.1262.1784.2311.30491.3039.1265.0729.26993.1113.41593.1113.14595 0 .28945-.0384.41595-.1113.1265-.0728.2316-.1777.3049-.3039.2309-.3981.7409-.5337 1.139-.3027.3981.2309.5336.7408.3026 1.1389-.2197.3789-.5351.6934-.9147.912-.3795.2186-.8098.3336-1.24775.3336-.43798 0-.86827-.115-1.24779-.3336s-.69495-.5331-.91471-.912c-.23094-.3981-.09542-.908.30269-1.1389z"/></g></svg>