<svg fill="none" height="17" viewBox="0 0 16 17" width="16" xmlns="http://www.w3.org/2000/svg"><g clip-rule="evenodd" fill="#475569" fill-rule="evenodd"><path d="m12.4721 4.51545c.2603.26035.2603.68246 0 .94281l-8.00004 8.00004c-.26035.2603-.68246.2603-.94281 0-.26035-.2604-.26035-.6825 0-.9428l7.99995-8.00005c.2604-.26035.6825-.26035.9429 0z"/><path d="m3.52925 4.51545c.26035-.26035.68246-.26035.94281 0l8.00004 8.00005c.2603.2603.2603.6824 0 .9428-.2604.2603-.6825.2603-.9429 0l-7.99995-8.00004c-.26035-.26035-.26035-.68246 0-.94281z"/></g></svg>