<svg fill="none" height="20" viewBox="0 0 20 20" width="20" xmlns="http://www.w3.org/2000/svg"><g clip-rule="evenodd" fill="#475569" fill-rule="evenodd"><path d="m1.66699 5.00001c0-.46024.3731-.83334.83334-.83334h14.99997c.4603 0 .8334.3731.8334.83334 0 .46023-.3731.83333-.8334.83333h-14.99997c-.46024 0-.83334-.3731-.83334-.83333z"/><path d="m8.33301 2.49999c-.22102 0-.43298.0878-.58926.24408s-.24408.36824-.24408.58926v.83333h5.00003v-.83333c0-.22102-.0878-.43298-.2441-.58926s-.3682-.24408-.5893-.24408zm5.83329 1.66667v-.83333c0-.66304-.2634-1.29893-.7322-1.76777s-1.1047-.732232-1.7678-.732232h-3.33329c-.66304 0-1.29893.263392-1.76777.732232s-.73223 1.10473-.73223 1.76777v.83333h-1.66667c-.46024 0-.83333.3731-.83333.83334v11.6667c0 .663.26339 1.2989.73223 1.7677.46884.4689 1.10473.7323 1.76777.7323h8.33329c.6631 0 1.299-.2634 1.7678-.7323.4688-.4688.7322-1.1047.7322-1.7677v-11.6667c0-.46024-.3731-.83334-.8333-.83334zm-9.16663 1.66667v10.83337c0 .221.0878.4329.24408.5892s.36824.2441.58926.2441h8.33329c.2211 0 .433-.0878.5893-.2441s.2441-.3682.2441-.5892v-10.83337z"/><path d="m8.33333 8.33333c.46024 0 .83334.37309.83334.83333v5.00004c0 .4602-.3731.8333-.83334.8333-.46023 0-.83333-.3731-.83333-.8333v-5.00004c0-.46024.3731-.83333.83333-.83333z"/><path d="m11.6663 8.33333c.4603 0 .8334.37309.8334.83333v5.00004c0 .4602-.3731.8333-.8334.8333-.4602 0-.8333-.3731-.8333-.8333v-5.00004c0-.46024.3731-.83333.8333-.83333z"/></g></svg>