<svg fill="none" height="20" viewBox="0 0 20 20" width="20" xmlns="http://www.w3.org/2000/svg"><g clip-rule="evenodd" fill="#475569" fill-rule="evenodd"><path d="m1.56524 3.23223c.46884-.46884 1.10473-.73223 1.76777-.73223h5.83333c.46024 0 .83333.3731.83333.83333 0 .46024-.37309.83334-.83333.83334h-5.83333c-.22102 0-.43298.08779-.58926.24407s-.24408.36825-.24408.58926v11.6667c0 .221.0878.4329.24408.5892s.36824.2441.58926.2441h11.66669c.221 0 .4329-.0878.5892-.2441s.2441-.3682.2441-.5892v-5.8334c0-.4602.3731-.8333.8333-.8333.4603 0 .8334.3731.8334.8333v5.8334c0 .663-.2634 1.2989-.7323 1.7677-.4688.4689-1.1047.7323-1.7677.7323h-11.66669c-.66304 0-1.29893-.2634-1.76777-.7323-.46884-.4688-.732232-1.1047-.732232-1.7677v-11.6667c0-.66304.263392-1.29893.732232-1.76777z"/><path d="m16.6664 2.39891c-.2479 0-.4855.09844-.6608.27368l-7.75344 7.75341-.44049 1.762 1.76198-.4405 7.75345-7.75342c.1752-.17524.2737-.41291.2737-.66074s-.0985-.4855-.2737-.66075c-.1752-.17524-.4129-.27368-.6607-.27368zm-1.8393-.90483c.4878-.4878 1.1494-.761841 1.8393-.761841.6898 0 1.3514.274041 1.8392.761841s.7619 1.1494.7619 1.83926c0 .68985-.2741 1.35145-.7619 1.83925l-7.9167 7.91671c-.1068.1068-.2406.1825-.3871.2192l-3.33333.8333c-.28398.071-.58438-.0122-.79137-.2192-.20698-.207-.29019-.5074-.21919-.7914l.83333-3.33331c.03663-.14652.1124-.28034.2192-.38714z"/></g></svg>