<svg fill="none" height="16" viewBox="0 0 16 16" width="16" xmlns="http://www.w3.org/2000/svg"><path clip-rule="evenodd" d="m1.65366 2.72431c.09533-.19777.30126-.32431.52777-.32431h11.63637c.2265 0 .4324.12654.5278.32431.0953.19777.0627.43082-.0836.5973l-4.51694 5.14103v4.57736c0 .1941-.10441.3743-.27594.4764-.17153.102-.38572.1113-.56607.0245l-2.32727-1.12c-.19711-.0949-.32162-.2888-.32162-.5009v-3.45736l-4.51698-5.14103c-.14627-.16648-.17886-.39953-.08352-.5973zm1.78177.79569 3.8448 4.376c.08883.10109.13756.22921.13756.3616v3.3163l1.16364.56v-3.8763c0-.13239.04873-.26051.13756-.3616l3.84481-4.376z" fill="#475569" fill-rule="evenodd"/></svg>