<svg fill="none" height="21" viewBox="0 0 21 21" width="21" xmlns="http://www.w3.org/2000/svg"><path clip-rule="evenodd" d="m11.2876 1.40224c.3393.14731.5409.5007.495.86778l-.7162 5.72998h6.556c.3234 0 .6175.18705.7547.47987.1371.29282.0925.63854-.1145.88695l-8.33334 9.99998c-.23683.2842-.63267.3783-.97202.2309-.33934-.1473-.54095-.5007-.49507-.8677l.71625-5.73h-6.55601c-.32335 0-.61751-.1871-.75466-.4799s-.09253-.6385.11447-.8869l8.33338-10.00002c.2368-.2842.6326-.37824.972-.23094zm-6.88599 9.93106h5.72079c.239 0 .4666.1027.6247.2819.1582.1792.2319.4176.2022.6548l-.4808 3.8463 5.3747-6.44964h-5.7208c-.23902 0-.46654-.10264-.62473-.28183-.15818-.17919-.23181-.41768-.20216-.65486l.48078-3.84626z" fill="#6c5ce7" fill-rule="evenodd"/></svg>