<svg fill="none" height="20" viewBox="0 0 20 20" width="20" xmlns="http://www.w3.org/2000/svg"><g clip-rule="evenodd" fill="#475569" fill-rule="evenodd"><path d="m9.99968 2.5c-4.14214 0-7.50001 3.35786-7.50001 7.5 0 4.1421 3.35787 7.5 7.50001 7.5 4.14212 0 7.50002-3.3579 7.50002-7.5 0-4.14214-3.3579-7.5-7.50002-7.5zm-9.166672 7.5c0-5.06261 4.104052-9.166672 9.166672-9.166672s9.16662 4.104062 9.16662 9.166672c0 5.0626-4.104 9.1667-9.16662 9.1667s-9.166672-4.1041-9.166672-9.1667z"/><path d="m10.2149 6.68692c-.38796-.06654-.78693.00636-1.12626.20579-.33934.19943-.59714.51252-.72776.88382-.15272.43416-.62849.6623-1.06264.50957-.43416-.15272-.66231-.62849-.50958-1.06264.26123-.74259.77684-1.36877 1.4555-1.76763.67867-.39886 1.47661-.54466 2.25244-.41158.7759.13308 1.4796.53646 1.9866 1.13868.5068.60211.7843 1.36413.7832 2.15116-.0003 1.27529-.9458 2.11751-1.621 2.56761-.3631.242-.7202.42-.9832.5369-.1327.059-.2445.1037-.325.1344-.0403.0154-.073.0273-.0968.0357l-.029.0102-.0092.0031-.0033.0011-.0012.0004c-.0003.0001-.0011.0004-.2646-.7902l.2635.7906c-.43659.1455-.90853-.0904-1.05406-.5271-.14545-.4363.09011-.9079.52617-1.0538l-.00107.0004c.00009 0 .00016 0 .00107-.0004l.0133-.0046c.01281-.0046.03383-.0122.06185-.0229.0562-.02138.13976-.05475.24142-.09993.20572-.09142.47362-.22597.73562-.40062.5746-.38311.8789-.79068.8789-1.18162v-.00125c.0006-.39359-.1382-.7747-.3917-1.07581-.2534-.30112-.6053-.5028-.9932-.56935z"/><path d="m9.16699 14.1667c0-.4603.3731-.8334.83331-.8334h.0084c.4602 0 .8333.3731.8333.8334 0 .4602-.3731.8333-.8333.8333h-.0084c-.46021 0-.83331-.3731-.83331-.8333z"/></g></svg>