<svg fill="none" height="20" viewBox="0 0 20 20" width="20" xmlns="http://www.w3.org/2000/svg"><g clip-rule="evenodd" fill="#475569" fill-rule="evenodd"><path d="m9.16699 3.33333c-3.22166 0-5.83333 2.61168-5.83333 5.83334 0 3.22163 2.61167 5.83333 5.83333 5.83333 3.22171 0 5.83331-2.6117 5.83331-5.83333 0-3.22166-2.6116-5.83334-5.83331-5.83334zm-7.5 5.83334c0-4.14214 3.35787-7.5 7.5-7.5 4.14211 0 7.50001 3.35786 7.50001 7.5 0 4.14213-3.3579 7.50003-7.50001 7.50003-4.14213 0-7.5-3.3579-7.5-7.50003z"/><path d="m13.2861 13.2857c.3254-.3254.853-.3254 1.1785 0l3.625 3.625c.3254.3255.3254.8531 0 1.1786-.3255.3254-.8531.3254-1.1785 0l-3.625-3.625c-.3255-.3255-.3255-.8531 0-1.1786z"/></g></svg>