<svg fill="none" height="12" viewBox="0 0 12 12" width="12" xmlns="http://www.w3.org/2000/svg"><g clip-rule="evenodd" fill="#475569" fill-rule="evenodd"><path d="m9.5 8.24444c0 .12037-.04329.22454-.12988.3125l-3.0625 3.11116c-.08659.0879-.18913.1319-.30762.1319s-.22103-.044-.30762-.1319l-3.0625-3.11116c-.08659-.08796-.12988-.19213-.12988-.3125s.04329-.22453.12988-.3125c.08659-.08796.18913-.13194.30762-.13194h6.125c.11849 0 .22103.04398.30762.13194.08659.08797.12988.19213.12988.3125z"/><path d="m9.5 3.55516c0-.12037-.04329-.22453-.12988-.3125l-3.0625-3.111107c-.08659-.0879627-.18913-.13194401-.30762-.13194401s-.22103.04398131-.30762.13194401l-3.0625 3.111107c-.08659.08797-.12988.19213-.12988.3125s.04329.22454.12988.3125c.08659.08797.18913.13195.30762.13195h6.125c.11849 0 .22103-.04398.30762-.13195.08659-.08796.12988-.19213.12988-.3125z"/></g></svg>